<svg xmlns="http://www.w3.org/2000/svg" viewBox="0 0 130 130">
<!-- SVG created with Arrow, by QuiverAI (https://quiver.ai) -->
  <style type="text/css">.cls-0 {fill:#4CD5C3;}
.cls-1 {fill:#28B0A4;}
.cls-2 {fill:#249A93;}
.cls-3 {fill:#FCD757;}
.cls-4 {fill:url(#SVGID_1_);}
.cls-5 {fill:#41CDBB;}
.cls-6 {fill:url(#SVGID_2_);}
.cls-7 {fill:#44CEBC;}
.cls-8 {fill:#FFEF76;}
.cls-9 {fill:#E1EA89;}</style>
  <path class="cls-0" d="m116.2 38.7 10.4 4.3-10.4 2-5.2-0.7 1.6-7.3 3.6 1.7z"/>
  <path class="cls-1" d="m116.2 45.1 9.8-1.9c0.8-0.2 2.5-0.2 2.7 0.8l-0.2 14.6c0 2.3-1.9 4.7-4.1 5l-9.4 1.5-0.5-19.8 1.7-0.2z"/>
  <path class="cls-1" d="m109.4 9.6-18.7-6.3c-1.5-0.5-3.2-0.7-5.1-0.5l-51.3 7.4c-1.9 0.3-3.8 1.5-5.7 2.9l20.7 8.8 39.2-0.5 20.9-11.8z"/>
  <path class="cls-0" d="m28.6 12.9c-2.2 2.2-3.9 5.6-4.3 9.2v28.8l24.5 7.7 0.5-37.2-20.7-8.5z"/>
  <path class="cls-1" d="m50.2 20.9c-2.1 2.3-4.7 6.3-4.7 10.1v56.9c0 6.3 3.8 11.9 9.6 11.5l-23.2-8.5c-4-1.6-7.6-5.4-7.6-12.5v-56.1c0.2-3.4 1.9-7.2 4.3-9.4l20.2 8.3 1.4-0.3z"/>
  <linearGradient id="SVGID_1_" x1="1.27" x2="36.74" y1="64.92" y2="55.84" gradientUnits="userSpaceOnUse">
    <stop stop-color="#33C0B1" offset=".362"/>
    <stop stop-color="#2DAEA5" offset="1"/>
  </linearGradient>
  <path class="cls-4" d="m24.3 49.4-19.4 3.4c-2.1 0.3-3.7 3.1-3.7 5.8v11.1c0 1.7 0.9 3.8 2.6 4.6l10.1 3.9c0.5 0.2 0.7 0.2 1.4 0l19-3.1 2.4-21.6-12.4-4.1z"/>
  <path class="cls-5" d="m17 57.8 18.5-3.4c2.4-0.4 4.1 0.7 4.1 3.2v12.8c0 2.4-1.5 4.7-3.9 5.2l-19.4 3c-1.7 0-3.1-1.1-3.1-3v-12.3c0-2.4 1.6-5 3.8-5.5z"/>
  <path class="cls-7" d="m105.6 9.4-50.3 7.4c-5.3 0.9-9.8 7.5-9.8 13.1v58c0 6.5 3.8 11.9 10.1 11.5l50.7-8.7c4.8-0.9 9.9-5.7 9.9-12.3v-59.2c0-6.1-4.3-10.4-10.6-9.8z"/>
  <path class="cls-0" d="m94.3 102.6-4.3 0.9-16.1-7.2 9.1-1.3 7.2 1.5 4.1 6.1z"/>
  <path class="cls-1" d="m98.3 94.6 10.9 5.2-14.9 2.8-5.3-2.8 1-0.7 8.3-4.5z"/>
  <path class="cls-1" d="m73.9 96.3v13.5l15.6 8 19.7-3.9v-14.1l-19.7 3.7-15.6-7.2z"/>
  <path class="cls-3" d="m73.9 109.8v4.5l15.6 7.5 19.7-3.9v-4l-19.7 3.9-15.6-8z"/>
  <linearGradient id="SVGID_2_" x1="82.91" x2="98.32" y1="96.1" y2="96.1" gradientUnits="userSpaceOnUse">
    <stop stop-color="#249A93" offset="0"/>
    <stop stop-color="#249B94" offset="1"/>
  </linearGradient>
  <path class="cls-6" d="m83 96.5 6.5 3.3 8.8-1.8v-5.8l-15.3 2.6v1.7z"/>
  <path class="cls-0" d="m89.5 103.5v14.3l19.7-3.9v-14.1l-19.7 3.7z"/>
  <path class="cls-0" d="m29.1 101.1 16-2.9 4.9 9.7-4.9 1.1-16-7.6v-0.3z"/>
  <path class="cls-1" d="m45.1 104.9 4.9 3 14.4-2.8-10.5-5.2-8.8 1.9v3.1z"/>
  <path class="cls-2" d="m38.4 93.5v8.3l6.7 3.1 8.8-1.6v-3.9l-15.5-5.9z"/>
  <path class="cls-1" d="m29.1 101.3v14.3l16 7.5 19.3-3.8v-14.2l-19.3 3.9-16-7.7z"/>
  <path class="cls-3" d="m29.1 115.6v3.8l16 8.1 19.3-4.1v-4.1l-19.3 3.8-16-7.5z"/>
  <path class="cls-7" d="m45.1 109v14.1l19.3-3.8v-14.2l-19.3 3.9z"/>
  <path class="cls-8" d="m61.1 39.5 8-1.1c1.4-0.2 2.1 0.7 2.1 2.3v26.6c0 1.5-1.2 3.1-2.9 3.4l-7.5 1.4c-1.6 0.2-3.1-0.7-3.1-3.1v-24.5c0-2.6 1.9-4.5 3.4-5z"/>
  <path class="cls-9" d="m68.8 38.4-0.2 28c0 1.4-0.7 2.4-2.4 2.7l-7.5 1.3c0.5 1.3 1.4 1.9 3.3 1.5l6.3-1c1.5-0.2 2.9-1.7 2.9-3.4v-26.6c0-1.6-0.9-2.7-2.4-2.5z"/>
  <path class="cls-8" d="m96.7 33.4 7.5-1.1c1.4-0.2 2.6 0.9 2.6 2.5v26.1c0 1.9-1.2 3.5-2.9 3.8l-7 1.4c-1.7 0-3.6-1-3.6-3.5v-25.4c0-1.9 1.4-3.5 3.4-3.8z"/>
  <path class="cls-9" d="m104.2 32.3v27.2c0 1.5-0.7 2.4-2.2 2.7l-8.2 1.9c0.5 1.3 1.9 2.3 3.1 2l7-1.4c1.7-0.3 2.9-1.5 2.9-3.8v-26.1c0-1.6-1.2-2.7-2.6-2.5z"/>
</svg>